<?xml version="1.0" ?><svg id="Layer_1" style="enable-background:new 0 0 48 48;" version="1.1" viewBox="0 0 48 48" xml:space="preserve" xmlns="http://www.w3.org/2000/svg" xmlns:xlink="http://www.w3.org/1999/xlink"><g id="Icons"><g><g><path d="M20.4602,25.58498l0.0192,1.399l-5.4554,1.3767c-2.8832,0.7646-5.1565,2.5945-6.1347,4.938     l-1.4258,3.4161c0,0,15.8496,5.9304,33.073,0.0273l-1.4258-3.4162c-0.9782-2.3435-3.2515-4.1733-6.1347-4.9379l-5.4792-1.4352     l0.0536-1.2973" style="fill:#FFC601;"/></g><path d="M27.5994,27.15818c0,3.7178-7.2019,3.6816-7.202-0.0313v-1.9178l7.202-0.1051V27.15818z" style="fill:#DDBEA8;"/><path d="M16.1854,8.64138l0.9162,9.1165l1.62713,2.94961l0.82507-3.96621l-0.1146-1.6334l4.2985,0.4728    c0.111,0.0135,0.362-0.1583,0.4729-0.1719l4.3559-0.2866l0.0143,1.4472l0.80692,4.06573l1.36988-2.99154l1.2578-9.0022    C32.0154,8.64138,16.1854,8.64138,16.1854,8.64138z" style="fill:#464747;"/><path d="M17.1016,17.75788c0,0-0.893,0.4231-0.9533,1.6659c-0.0603,1.2427,0.4285,2.3329,1.9065,2.5618    c0,0,0.4628,1.8119,1.8861,3.1353c1.4233,1.3234,2.7989,2.0302,4.1224,1.8294s3.5801-0.8751,4.6375-2.6147    c1.0575-1.7395,1.0644-2.5166,1.0644-2.5166s1.3959,0.1107,1.8936-1.2131c0.4978-1.3238,0.0654-2.4641-0.9012-2.9623    l-1.4136,2.1836l-0.2524-3.3468l0.3396-2.0494l-5.2243,0.7203l-5.677-0.7203l0.3375,2.0792l-0.2384,3.4716L17.1016,17.75788" style="fill:#F9D9C0;"/></g></g></svg>